<?xml version="1.0" encoding="UTF-8"?>
<!DOCTYPE svg PUBLIC "-//W3C//DTD SVG 1.1//EN" "http://www.w3.org/Graphics/SVG/1.1/DTD/svg11.dtd">
<!-- Creator: CorelDRAW 2021 (64-Bit) -->
<svg xmlns="http://www.w3.org/2000/svg" xml:space="preserve" width="45.8133mm" height="13.8981mm" version="1.1" style="shape-rendering:geometricPrecision; text-rendering:geometricPrecision; image-rendering:optimizeQuality; fill-rule:evenodd; clip-rule:evenodd"
viewBox="0 0 3222.77 977.67"
 xmlns:xlink="http://www.w3.org/1999/xlink"
 xmlns:xodm="http://www.corel.com/coreldraw/odm/2003">
 <defs>
  <style type="text/css">
   <![CDATA[
    .fil0 {fill:#FF597B}
    .fil1 {fill:white;fill-rule:nonzero}
   ]]>
  </style>
 </defs>
 <g id="Layer_x0020_1">
  <metadata id="CorelCorpID_0Corel-Layer"/>
  <path class="fil0" d="M3052.65 410.95l66.27 0c16.17,0 29.4,13.23 29.4,29.41l0 477.22c0,16.18 -13.23,29.41 -29.4,29.41l-66.27 0c-16.17,0 -29.4,-13.23 -29.4,-29.41l0 -477.22c0,-16.18 13.23,-29.41 29.4,-29.41z"/>
  <path class="fil0" d="M104.46 410.96l66.27 0c16.17,0 29.4,13.23 29.4,29.41l0 477.22c0,16.18 -13.23,29.41 -29.4,29.41l-66.27 0c-16.17,0 -29.4,-13.23 -29.4,-29.41l0 -477.22c0,-16.18 13.23,-29.41 29.4,-29.41z"/>
  <path class="fil1" d="M848.3 2.09l56.88 212.32 -49.14 0 -11.91 -51.52 -45.56 0 -12.21 51.52 -48.24 0 55.69 -207.27 54.5 -5.06zm-27.7 53.6l-15.48 71.77 32.76 0 -13.7 -71.77 -3.57 0zm163.93 -0.6c5.46,-15.88 14.7,-29.04 27.7,-39.46 13.01,-10.43 30.23,-15.64 51.67,-15.64 21.44,0 37.02,5.51 46.75,16.53 9.73,11.02 14.59,29.23 14.59,54.64l-48.54 2.38c0,-14.49 -1.48,-24.02 -4.47,-28.58 -2.98,-4.57 -8.04,-6.85 -15.19,-6.85 -11.11,0 -18.61,5.96 -22.48,17.87 -3.87,11.91 -5.8,29.97 -5.8,54.19 0,24.23 3.57,41.84 10.72,52.86 7.15,11.02 18.96,16.52 35.43,16.52 10.13,0 24.42,-2.98 42.88,-8.93l9.83 30.97c-21.44,10.92 -43.58,16.38 -66.41,16.38 -56.58,0 -84.87,-36.13 -84.87,-108.4 0,-20.45 2.73,-38.61 8.19,-54.5zm320.57 -53.01l56.88 212.32 -49.14 0 -11.91 -51.52 -45.56 0 -12.21 51.52 -48.24 0 55.69 -207.27 54.5 -5.06zm-27.7 53.6l-15.48 71.77 32.76 0 -13.7 -71.77 -3.57 0zm166.76 -52.12l67.9 0c13.7,0 25.66,2.09 35.88,6.25 10.23,4.17 18.27,9.48 24.12,15.93 5.86,6.45 10.57,14.54 14.15,24.27 5.96,16.28 8.93,36.14 8.93,59.56 0,36.53 -8.93,64.32 -26.8,83.38 -13.5,14.29 -32.06,21.44 -55.69,21.44l-68.5 0 0 -210.84zm48.84 36.93l0 136.98 18.76 0c12.51,0 20.84,-5.81 25.01,-17.42 4.17,-11.61 6.25,-29.13 6.25,-52.56 0,-23.43 -2.43,-40.45 -7.29,-51.07 -4.87,-10.62 -13.65,-15.93 -26.36,-15.93l-16.38 0zm192.37 -36.93l128.65 0 -5.36 37.23 -74.45 0 0 47.94 67.3 0 -5.06 36.33 -62.24 0 0 52.41 81.3 0 -5.36 36.92 -124.78 0 0 -210.84zm395.47 0l14.6 210.84 -44.37 0 -6.25 -112.86 3.57 -30.38 -2.68 0 -31.56 130.43 -44.37 2.68 -33.06 -132.82 -2.68 0 3.57 29.48 -4.76 113.46 -39.01 0 11.32 -210.84 55.39 0 29.78 122.1 4.47 29.48 1.79 0 3.28 -29.19 26.8 -122.39 54.19 0zm154.56 0l0 210.84 -48.84 0 0 -210.84 48.84 0zm192.07 -1.48l56.88 212.32 -49.14 0 -11.91 -51.52 -45.56 0 -12.21 51.52 -48.24 0 55.69 -207.27 54.5 -5.06zm-27.7 53.6l-15.48 71.77 32.76 0 -13.7 -71.77 -3.57 0zm-2268.16 705.18l-6.55 92.31c0,17.47 5.56,32.66 16.68,45.56 11.11,12.91 29.18,20.55 54.19,22.93l8.93 55.99 -36.33 0c-27.79,0 -54,-8.34 -78.62,-25.01 -12.7,-8.74 -23.03,-20.85 -30.97,-36.33 -7.94,-15.48 -11.91,-30.77 -11.91,-45.86 0,-15.09 1.09,-33.46 3.27,-55.09 2.19,-21.64 3.28,-39.91 3.28,-54.79 0,-14.89 -4.47,-26.21 -13.4,-33.95 -8.93,-7.75 -22.33,-13.01 -40.2,-15.79l0 -66.11c17.47,-1.98 30.77,-7.05 39.91,-15.19 9.13,-8.14 13.7,-19.06 13.7,-32.76 0,-13.7 -1.09,-31.47 -3.28,-53.31 -2.18,-21.84 -3.27,-40.79 -3.27,-56.87 0,-16.08 3.97,-31.87 11.91,-47.35 7.94,-15.49 18.27,-27.4 30.97,-35.74 25.41,-16.68 51.62,-25.01 78.62,-25.01l35.74 0 -8.34 55.98c-25.01,2.38 -42.98,10.03 -53.9,22.93 -10.92,12.91 -16.38,28.1 -16.38,45.56l5.95 92.91c0,21.05 -6.25,38.92 -18.76,53.6 -12.51,14.7 -25.51,23.83 -39.01,27.4l0 3.57c13.5,3.57 26.5,12.61 39.01,27.1 12.51,14.49 18.76,32.26 18.76,53.31zm102.14 -215.01c10.92,-31.76 29.38,-58.07 55.39,-78.91 26.01,-20.85 60.46,-31.27 103.34,-31.27 42.88,0 74.05,11.02 93.51,33.06 19.46,22.03 29.19,58.46 29.19,109.29l-97.08 4.77c0,-28.99 -2.98,-48.05 -8.93,-57.18 -5.96,-9.13 -16.08,-13.7 -30.38,-13.7 -22.24,0 -37.23,11.91 -44.97,35.74 -7.74,23.83 -11.61,59.96 -11.61,108.4 0,48.44 7.15,83.68 21.44,105.72 14.29,22.04 37.92,33.06 70.88,33.06 20.25,0 48.83,-5.96 85.77,-17.87l19.65 61.94c-42.88,21.84 -87.16,32.76 -132.82,32.76 -113.17,0 -169.74,-72.27 -169.74,-216.8 0,-40.9 5.46,-77.23 16.38,-108.99zm416.02 209.65c0,19.46 1.29,33.75 3.88,42.88 2.58,9.13 9.03,20.05 19.35,32.76l-65.51 48.24c-19.06,-20.25 -32.06,-38.02 -39.01,-53.31 -6.94,-15.29 -10.42,-38.22 -10.42,-68.79l0 -332.34 91.72 -10.13 0 340.68zm191.78 -215.61c39.7,0 68.89,10.92 87.55,32.76 15.48,17.87 25.01,47.65 28.59,89.34 1.19,16.68 1.79,37.52 1.79,62.54l-42.29 5.96 -122.69 0c0,23.43 4.37,41 13.11,52.71 8.74,11.71 24.32,17.57 46.75,17.57 22.43,0 49.54,-5.76 81.3,-17.28l18.47 55.99c-37.72,21.44 -77.03,32.16 -117.93,32.16 -92.52,0 -138.78,-54.79 -138.78,-164.38 0,-51.62 12.02,-92.42 36.04,-122.39 24.02,-29.98 60.05,-44.97 108.1,-44.97zm20.25 84.28c-3.97,-8.93 -12.9,-13.4 -26.8,-13.4 -13.89,0 -23.82,5.06 -29.78,15.19 -5.96,10.12 -9.33,25.31 -10.12,45.56l72.66 0c0,-22.63 -1.98,-38.42 -5.96,-47.35zm217.4 -44.96c20.65,-26.21 48.44,-39.32 83.38,-39.32 34.94,0 59.76,12.91 74.45,38.72 21.05,-25.81 49.64,-38.72 85.77,-38.72 61.14,0 91.72,37.92 91.72,113.76l0 210.84 -91.72 0 0 -215.01c0,-25.81 -10.52,-38.71 -31.57,-38.71 -15.09,0 -27.2,5.75 -36.33,17.27l0 236.45 -91.13 0 0 -215.01c0,-25.81 -10.72,-38.71 -32.16,-38.71 -14.29,0 -26.4,5.75 -36.33,17.27l0 236.45 -91.13 0 0 -223.95 -6.56 -88.74 70.88 -8.93 8.34 36.33 2.38 0zm523.53 -39.32c39.7,0 68.89,10.92 87.55,32.76 15.48,17.87 25.01,47.65 28.59,89.34 1.19,16.68 1.79,37.52 1.79,62.54l-42.29 5.96 -122.69 0c0,23.43 4.37,41 13.11,52.71 8.74,11.71 24.32,17.57 46.75,17.57 22.43,0 49.54,-5.76 81.3,-17.28l18.47 55.99c-37.72,21.44 -77.03,32.16 -117.93,32.16 -92.52,0 -138.78,-54.79 -138.78,-164.38 0,-51.62 12.02,-92.42 36.04,-122.39 24.02,-29.98 60.05,-44.97 108.1,-44.97zm20.25 84.28c-3.97,-8.93 -12.9,-13.4 -26.8,-13.4 -13.89,0 -23.82,5.06 -29.78,15.19 -5.96,10.12 -9.33,25.31 -10.12,45.56l72.66 0c0,-22.63 -1.98,-38.42 -5.96,-47.35zm306.14 -84.28c29.78,0 52.81,8.74 69.09,26.21 16.29,17.47 24.42,41.89 24.42,73.26l0 225.13 -91.72 0 0 -215.01c0,-25.81 -12.31,-38.71 -36.92,-38.71 -14.29,0 -26.8,5.75 -37.52,17.27l0 236.45 -91.13 0 0 -225.13 -6.56 -87.55 70.88 -8.93 8.34 35.74 2.98 0c21.44,-25.81 50.82,-38.72 88.15,-38.72zm256.11 4.77l80.41 0 -10.72 66.11 -69.68 0 0 136.39c0,20.25 2.79,34.34 8.34,42.28 5.56,7.94 15.09,11.91 28.59,11.91 5.56,0 16.88,-1.98 33.95,-5.95l16.08 53.01c-7.55,5.96 -19.75,11.32 -36.63,16.08 -16.88,4.76 -32.26,7.15 -46.16,7.15 -39.31,0 -65.02,-10.02 -77.13,-30.08 -12.11,-20.05 -18.17,-52.91 -18.17,-98.57l0 -132.22 -45.86 0 8.34 -59.56 39.31 -5.36 3.57 -59.56 85.77 -25.61 0 83.98zm209.06 319.83l-91.13 0 0 -312.1 91.13 -9.52 0 321.62zm-48.84 -338.9c-32.96,0 -49.43,-18.46 -49.43,-55.39 0,-14.29 4.37,-26.11 13.1,-35.43 8.74,-9.33 23.03,-14 42.88,-14 32.56,0 48.84,18.66 48.84,55.99 0,14.29 -4.37,26.01 -13.11,35.14 -8.73,9.13 -22.83,13.7 -42.28,13.7zm270.99 14.29c29.78,0 52.81,8.74 69.09,26.21 16.29,17.47 24.42,41.89 24.42,73.26l0 225.13 -91.72 0 0 -215.01c0,-25.81 -12.31,-38.71 -36.92,-38.71 -14.29,0 -26.8,5.75 -37.52,17.27l0 236.45 -91.13 0 0 -225.13 -6.56 -87.55 70.88 -8.93 8.34 35.74 2.98 0c21.44,-25.81 50.82,-38.72 88.15,-38.72zm287.08 107.8c0,-13.1 -2.78,-22.73 -8.34,-28.88 -5.56,-6.16 -16.28,-9.23 -32.16,-9.23 -15.88,0 -42.09,5.75 -78.62,17.27l-25.61 -55.99c13.5,-7.54 32.26,-14.59 56.28,-21.15 24.02,-6.55 47.65,-9.83 70.87,-9.83 23.23,0 42.69,2.79 58.37,8.34 15.68,5.56 27,13.79 33.95,24.72 6.95,10.92 11.52,21.74 13.7,32.46 2.19,10.72 3.28,24.22 3.28,40.5l0 111.98c0,14.69 1.48,26.6 4.47,35.74 2.98,9.13 9.43,19.06 19.35,29.78l-51.82 48.24c-9.13,-4.37 -17.97,-10.92 -26.5,-19.65 -8.54,-8.74 -14.79,-16.88 -18.76,-24.42l-2.38 0c-23.03,29.38 -52.21,44.07 -87.55,44.07 -57.18,0 -85.77,-29.58 -85.77,-88.74 0,-31.37 9.03,-54.8 27.1,-70.28 18.07,-15.48 44.18,-26.2 78.32,-32.16l51.82 -8.93 0 -23.83zm-70.87 125.67c0,19.46 10.32,29.19 30.97,29.19 15.88,0 29.38,-5.56 40.51,-16.68l0 -55.99c-25.42,3.57 -43.68,8.44 -54.8,14.6 -11.11,6.15 -16.67,15.78 -16.67,28.88zm258.49 -177.49l5.96 -92.91c0,-17.47 -5.46,-32.65 -16.38,-45.56 -10.92,-12.9 -28.89,-20.55 -53.91,-22.93l-8.34 -55.98 35.74 0c27,0 53.21,8.34 78.62,25.01 12.7,8.34 23.03,20.25 30.97,35.74 7.94,15.48 11.91,31.27 11.91,47.35 0,16.08 -1.09,35.04 -3.28,56.87 -2.18,21.84 -3.27,37.92 -3.27,48.25 0,31.37 17.87,49.03 53.6,53.01l0 66.11c-17.47,2.78 -30.78,8.04 -39.91,15.79 -9.13,7.74 -13.7,19.06 -13.7,33.95 0,14.89 1.09,33.15 3.27,54.79 2.19,21.64 3.28,40.01 3.28,55.09 0,15.09 -3.97,30.38 -11.91,45.86 -7.94,15.48 -18.06,27.6 -30.38,36.33 -25.01,16.67 -51.42,25.01 -79.22,25.01l-36.33 0 8.93 -55.99c25.01,-2.38 43.19,-10.02 54.5,-22.93 11.32,-12.9 16.97,-28.09 16.97,-45.56 0,-10.32 -1.19,-25.61 -3.57,-45.86 -2.38,-20.25 -3.57,-35.74 -3.57,-46.46 0,-21.05 6.25,-38.82 18.76,-53.31 12.51,-14.49 25.51,-23.52 39.01,-27.1l0 -3.57c-13.5,-3.57 -26.51,-12.7 -39.01,-27.4 -12.51,-14.69 -18.76,-32.56 -18.76,-53.6z"/>
 </g>
</svg>
