<?xml version="1.0" encoding="UTF-8"?>
<!DOCTYPE svg PUBLIC "-//W3C//DTD SVG 1.1//EN" "http://www.w3.org/Graphics/SVG/1.1/DTD/svg11.dtd">
<!-- Creator: CorelDRAW 2021 (64-Bit) -->
<svg xmlns="http://www.w3.org/2000/svg" xml:space="preserve" width="51.0541mm" height="51.0541mm" version="1.1" style="shape-rendering:geometricPrecision; text-rendering:geometricPrecision; image-rendering:optimizeQuality; fill-rule:evenodd; clip-rule:evenodd"
viewBox="0 0 5765.11 5765.11"
 xmlns:xlink="http://www.w3.org/1999/xlink"
 xmlns:xodm="http://www.corel.com/coreldraw/odm/2003">
 <defs>
  <style type="text/css">
   <![CDATA[
    .fil0 {fill:#B3B3B3;fill-rule:nonzero}
   ]]>
  </style>
 </defs>
 <g id="Layer_x0020_1">
  <metadata id="CorelCorpID_0Corel-Layer"/>
  <path id="phone-solid.svg" class="fil0" d="M1856.69 277.25c-86.7,-209.42 -315.27,-320.89 -533.7,-261.22l-990.83 270.23c-195.92,54.04 -332.16,231.94 -332.16,434.61 0,2785.59 2258.65,5044.24 5044.24,5044.24 202.67,0 380.57,-136.24 434.61,-332.16l270.23 -990.83c59.67,-218.44 -51.8,-447 -261.22,-533.7l-1080.91 -450.38c-183.53,-76.56 -396.33,-23.65 -521.31,130.61l-454.88 555.1c-792.66,-374.94 -1434.45,-1016.73 -1809.4,-1809.4l555.1 -453.75c154.25,-126.11 207.17,-337.78 130.61,-521.31l-450.38 -1080.91 0 -1.13z"/>
 </g>
</svg>
